<?xml version="1.0" encoding="iso-8859-1"?>
<!-- Uploaded to: SVG Repo, www.svgrepo.com, Generator: SVG Repo Mixer Tools -->
<svg height="800px" width="800px" version="1.1" id="Layer_1" xmlns="http://www.w3.org/2000/svg" xmlns:xlink="http://www.w3.org/1999/xlink" 
	 viewBox="0 0 503.467 503.467" xml:space="preserve">
<g transform="translate(3 5)">
	<path style="fill:#F2EDDA;" d="M103.88,33.4h85.333h85.333h85.333h51.2c17.067,0,34.133,17.067,34.133,34.133v256l-0.853,0.853
		c-8.533-3.413-17.067-0.853-23.893,6.827L403.4,348.28l-77.653,77.653h-307.2v-358.4c0-17.067,17.067-34.133,34.133-34.133h17.067
		H103.88z M120.947,67.533c0-9.387-7.68-17.067-17.067-17.067s-17.067,7.68-17.067,17.067S94.493,84.6,103.88,84.6
		S120.947,76.92,120.947,67.533L120.947,67.533z M291.613,67.533c0-9.387-7.68-17.067-17.067-17.067s-17.067,7.68-17.067,17.067
		S265.16,84.6,274.547,84.6S291.613,76.92,291.613,67.533L291.613,67.533z M206.28,67.533c0-9.387-7.68-17.067-17.067-17.067
		s-17.067,7.68-17.067,17.067s7.68,17.067,17.067,17.067S206.28,76.92,206.28,67.533L206.28,67.533z M376.947,67.533
		c0-9.387-7.68-17.067-17.067-17.067s-17.067,7.68-17.067,17.067S350.493,84.6,359.88,84.6S376.947,76.92,376.947,67.533z
		 M308.68,460.067V494.2h-256c-17.067,0-34.133-17.067-34.133-34.133H308.68z M325.747,425.933l-8.533,8.533L308.68,443v17.067
		H18.547v-34.133H325.747z"/>
	<polygon style="fill:#ECF4F7;" points="368.413,485.667 359.88,494.2 308.68,494.2 308.68,460.067 308.68,443 317.213,434.467 
		342.813,460.067 	"/>
	<path style="fill:#FF7474;" d="M429,373.88l-25.6-25.6l-77.653,77.653l-8.533,8.533l25.6,25.6l25.6,25.6L454.6,399.48L429,373.88
		L429,373.88z"/>
	<path style="fill:#ECF4F7;" d="M471.667,348.28c10.24,10.24,10.24,23.893,0,34.133L454.6,399.48l-25.6-25.6l-25.6-25.6
		l17.067-17.067c6.827-6.827,16.213-9.387,24.747-6.827c3.413,0.853,6.827,3.413,9.387,6.827L471.667,348.28z"/>
</g>
<path style="fill:#51565F;" d="M362.88,503.467h-51.2c-2.56,0-4.267-1.707-4.267-4.267V448c0-0.853,0.853-2.56,0.853-3.413
	L420.053,332.8c5.973-5.973,12.8-8.533,19.627-8.533l0,0c7.68,0,14.507,3.413,20.48,8.533l17.067,17.067
	c11.947,11.947,11.947,28.16,0,40.107L365.44,501.76C365.44,502.613,363.733,503.467,362.88,503.467z M315.947,494.933h45.227
	l4.267-4.267l-45.227-45.227l-4.267,4.267V494.933z M351.787,465.067l19.627,19.627l80.213-80.213L432,384.853L351.787,465.067z
	 M326.187,439.467l19.627,19.627l80.213-80.213L406.4,359.253L326.187,439.467z M412.373,353.28l45.227,45.227l13.653-13.653
	c4.267-4.267,6.827-9.387,6.827-13.653c0-5.12-2.56-10.24-6.827-14.507l-17.067-17.067c-8.533-8.533-19.627-8.533-28.16,0
	L412.373,353.28z M277.547,503.467H55.68c-19.627,0-38.4-18.773-38.4-38.4V72.533c0-19.627,18.773-38.4,38.4-38.4h17.067
	c2.56,0,4.267,1.707,4.267,4.267s-1.707,4.267-4.267,4.267H55.68c-14.507,0-29.867,15.36-29.867,29.867v354.133h251.733
	c2.56,0,4.267,1.707,4.267,4.267c0,2.56-1.707,4.267-4.267,4.267H25.813v25.6h251.733c2.56,0,4.267,1.707,4.267,4.267
	c0,2.56-1.707,4.267-4.267,4.267H25.813c2.56,13.653,16.213,25.6,29.867,25.6h221.867c2.56,0,4.267,1.707,4.267,4.267
	C281.813,501.76,280.107,503.467,277.547,503.467z M294.613,366.933H175.147c-2.56,0-4.267-1.707-4.267-4.267
	s1.707-4.267,4.267-4.267h119.467c2.56,0,4.267,1.707,4.267,4.267S297.173,366.933,294.613,366.933z M123.947,366.933H106.88
	c-2.56,0-4.267-1.707-4.267-4.267s1.707-4.267,4.267-4.267h17.067c2.56,0,4.267,1.707,4.267,4.267S126.507,366.933,123.947,366.933z
	 M345.813,315.733H175.147c-2.56,0-4.267-1.707-4.267-4.267c0-2.56,1.707-4.267,4.267-4.267h170.667c2.56,0,4.267,1.707,4.267,4.267
	C350.08,314.027,348.373,315.733,345.813,315.733z M123.947,315.733H106.88c-2.56,0-4.267-1.707-4.267-4.267
	c0-2.56,1.707-4.267,4.267-4.267h17.067c2.56,0,4.267,1.707,4.267,4.267C128.213,314.027,126.507,315.733,123.947,315.733z
	 M448.213,297.813c-2.56,0-4.267-1.707-4.267-4.267V72.533c0-14.507-15.36-29.867-29.867-29.867h-17.067
	c-2.56,0-4.267-1.707-4.267-4.267s1.707-4.267,4.267-4.267h17.067c19.627,0,38.4,18.773,38.4,38.4v221.013
	C452.48,296.107,450.773,297.813,448.213,297.813z M362.88,264.533H175.147c-2.56,0-4.267-1.707-4.267-4.267
	c0-2.56,1.707-4.267,4.267-4.267H362.88c2.56,0,4.267,1.707,4.267,4.267C367.147,262.827,365.44,264.533,362.88,264.533z
	 M123.947,264.533H106.88c-2.56,0-4.267-1.707-4.267-4.267c0-2.56,1.707-4.267,4.267-4.267h17.067c2.56,0,4.267,1.707,4.267,4.267
	C128.213,262.827,126.507,264.533,123.947,264.533z M328.747,213.333h-153.6c-2.56,0-4.267-1.707-4.267-4.267
	c0-2.56,1.707-4.267,4.267-4.267h153.6c2.56,0,4.267,1.707,4.267,4.267C333.013,211.627,331.307,213.333,328.747,213.333z
	 M123.947,213.333H106.88c-2.56,0-4.267-1.707-4.267-4.267c0-2.56,1.707-4.267,4.267-4.267h17.067c2.56,0,4.267,1.707,4.267,4.267
	C128.213,211.627,126.507,213.333,123.947,213.333z M345.813,162.133H175.147c-2.56,0-4.267-1.707-4.267-4.267
	c0-2.56,1.707-4.267,4.267-4.267h170.667c2.56,0,4.267,1.707,4.267,4.267C350.08,160.427,348.373,162.133,345.813,162.133z
	 M123.947,162.133H106.88c-2.56,0-4.267-1.707-4.267-4.267c0-2.56,1.707-4.267,4.267-4.267h17.067c2.56,0,4.267,1.707,4.267,4.267
	C128.213,160.427,126.507,162.133,123.947,162.133z M362.88,93.867c-11.947,0-21.333-9.387-21.333-21.333
	c0-10.24,7.68-18.773,17.067-20.48V4.267c0-2.56,1.707-4.267,4.267-4.267s4.267,1.707,4.267,4.267v47.787
	c9.387,1.707,17.067,10.24,17.067,20.48C384.213,84.48,374.827,93.867,362.88,93.867z M362.88,59.733c-6.827,0-12.8,5.973-12.8,12.8
	c0,6.827,5.973,12.8,12.8,12.8s12.8-5.973,12.8-12.8C375.68,65.707,369.707,59.733,362.88,59.733z M277.547,93.867
	c-11.947,0-21.333-9.387-21.333-21.333c0-10.24,7.68-18.773,17.067-20.48V4.267c0-2.56,1.707-4.267,4.267-4.267
	s4.267,1.707,4.267,4.267v47.787c9.387,1.707,17.067,10.24,17.067,20.48C298.88,84.48,289.493,93.867,277.547,93.867z
	 M277.547,59.733c-6.827,0-12.8,5.973-12.8,12.8c0,6.827,5.973,12.8,12.8,12.8s12.8-5.973,12.8-12.8
	C290.347,65.707,284.373,59.733,277.547,59.733z M192.213,93.867c-11.947,0-21.333-9.387-21.333-21.333
	c0-10.24,7.68-18.773,17.067-20.48V4.267c0-2.56,1.707-4.267,4.267-4.267c2.56,0,4.267,1.707,4.267,4.267v47.787
	c9.387,1.707,17.067,10.24,17.067,20.48C213.547,84.48,204.16,93.867,192.213,93.867z M192.213,59.733
	c-6.827,0-12.8,5.973-12.8,12.8c0,6.827,5.973,12.8,12.8,12.8c6.827,0,12.8-5.973,12.8-12.8
	C205.013,65.707,199.04,59.733,192.213,59.733z M106.88,93.867c-11.947,0-21.333-9.387-21.333-21.333
	c0-10.24,7.68-18.773,17.067-20.48V4.267c0-2.56,1.707-4.267,4.267-4.267c2.56,0,4.267,1.707,4.267,4.267v47.787
	c9.387,1.707,17.067,10.24,17.067,20.48C128.213,84.48,118.827,93.867,106.88,93.867z M106.88,59.733c-6.827,0-12.8,5.973-12.8,12.8
	c0,6.827,5.973,12.8,12.8,12.8c6.827,0,12.8-5.973,12.8-12.8C119.68,65.707,113.707,59.733,106.88,59.733z M328.747,42.667H311.68
	c-2.56,0-4.267-1.707-4.267-4.267s1.707-4.267,4.267-4.267h17.067c2.56,0,4.267,1.707,4.267,4.267S331.307,42.667,328.747,42.667z
	 M243.413,42.667h-17.067c-2.56,0-4.267-1.707-4.267-4.267s1.707-4.267,4.267-4.267h17.067c2.56,0,4.267,1.707,4.267,4.267
	S245.973,42.667,243.413,42.667z M158.08,42.667h-17.067c-2.56,0-4.267-1.707-4.267-4.267s1.707-4.267,4.267-4.267h17.067
	c2.56,0,4.267,1.707,4.267,4.267S160.64,42.667,158.08,42.667z"/>
</svg>